<svg id="Layer_1" enable-background="new 0 0 512 512" height="512" viewBox="0 0 512 512" width="512" xmlns="http://www.w3.org/2000/svg"><g><g><g><g id="XMLID_1947_"><g id="XMLID_1948_"><g id="XMLID_1949_"><g id="XMLID_1950_"><g id="XMLID_1951_"><g id="XMLID_1952_"><g id="XMLID_1953_"><g id="XMLID_1954_"><g id="XMLID_1999_"><g id="XMLID_2000_"><g id="XMLID_2001_"><g id="XMLID_2002_"><g id="XMLID_2003_"><g id="XMLID_2004_"><g id="XMLID_2005_"><circle cx="256" cy="256" fill="#494949" r="256"/></g></g></g></g></g></g></g></g></g></g></g></g></g></g></g></g></g><path d="m512 256c0-6.818-.273-13.571-.796-20.254l-153.26-153.26c-25.712-26.863-48.179 3.941-48.179 3.941l-17.686-15.398-24.654-24.644-132.058 148.283 69.588 69.774c-4.471 6.849-54.834 146.06-54.834 146.06l-34.182 35.24 49.917 49.917c28.04 10.552 58.414 16.341 90.144 16.341 141.385 0 256-114.615 256-256z" fill="#2d2d2d"/><g><path d="m278.41 62.798 24.879-17.592s91.137 32.791 93.635 132.094c1.939 77.059-6.003 116.09-6.003 116.09h-69.603z" fill="#cedfe2"/><path d="m238.982 69.052s-18.585 11.762-29.583 15.569-22.418 5.076-28.763 19.457c-6.345 14.382-31.791 32.462-42.722 39.338-15.371 9.669-18.154 30.719-9.271 43.831 8.883 13.113 20.233 14.031 31.214 13.014 9.696-.898 18.254-9.894 27.13-17.508s19.204-3.844 30.153 1.269c6.271 2.928 11.72 4.768 25.55 4.987 0 0-45.31 41.679-63.921 81.863-18.612 40.184-13.783 82.002-13.783 82.002h164.965s-2.961-68.604 0-90.177c2.961-21.572 36.616-95.425 7.43-147.029s-58.971-52.871-58.971-52.871-13.421-30.197-39.824-31.897z" fill="#fff"/><path d="m329.95 262.7c-2.96 21.57 0 90.17 0 90.17h-73.95v-316.24c14.88 9.22 22.41 26.17 22.41 26.17s29.78 1.26 58.97 52.87c29.19 51.6-4.47 125.46-7.43 147.03z" fill="#f1f4f6"/><g><path d="m135.86 348.924h240.28v45.937h-240.28z" fill="#daeaec"/><path d="m256 348.919h120.139v45.939h-120.139z" fill="#cedfe2"/><path d="m115.938 390.849h280.123v54.893h-280.123z" fill="#f1f4f6"/><g><path d="m256 390.848h140.061v54.891h-140.061z" fill="#daeaec"/></g></g></g></g></svg>